<svg xmlns="http://www.w3.org/2000/svg" width="431.5" height="347.45"><g fill-rule="evenodd"><path d="M84.8 137.25h17.15l-.05-4.6H84.8v4.6M308.2 21.6V0h51.6v132.65h-59.05q-4.8 0-9.65-1.85v1.85H189.05v4.6h7.45l6.15.7q5.3 1.25 9.95 4.6l1.6 1.35 1.6-1.3q7.15-5.35 16.15-5.35h33.35q8.85 0 16 5.25l1.75 1.4 1.6-1.3q7.2-5.35 16.15-5.35h97.55v5.45h33.15v84.5q0 11.05-9.7 17.9-7.6 5.3-16.05 5.3h-33.3q-8.15 0-15.6-5.05l-.25-.2q-4.8-3.45-7.55-9.45-2.35-5.25-2.35-10.5v-14.6h-20v29.7q1.25.75 2.1 1.4 9.65 6.95 9.65 18v64.6q0 11.1-9.6 17.8-7.5 5.35-16.1 5.35h-33.4q-8.45 0-15.95-5.25l-1.7-1.4-1.65 1.3q-7.5 5.35-16.1 5.35h-33.3q-8.25 0-15.6-5.05l-.25-.15-4-3.5q-1.9 2.05-3.85 3.35-7.5 5.35-16.1 5.35H137.5q-5.05 0-9.7-1.9v1.9H68.75q-8.6 0-16-5.25-9.7-6.75-9.7-17.9v-32.45q0-1.9.35-3.7h-.35V259.7q0-11.05 9.5-17.95 7.3-5.35 16.2-5.35h3.05q-2.7-5.65-2.7-11.2V189h-6.7v-29.7l-3.3.2H0v-46.35h.4L0 109.5V44.95Q0 33.8 9.55 26.9q7.2-5.3 16.15-5.3h102.1q9.05 0 16 5.2l1.75 1.4 1.5-1.3q7.25-5.3 16.15-5.3h33.4q5.05 0 9.65 1.8v-1.8h51.65v.45l7.45-.45q9 0 16 5.2l1.7 1.4 1.55-1.3q7.25-5.3 16.15-5.3h7.45"/><path fill="#fff" d="M108.2 149.75v5.4h33.25v21.4H108.2v37.9h6.7V182h26.55v43.2q0 6.6-4.4 9.7-4.4 3-8.9 3h-33.3q-4.4 0-8.6-2.85-2.15-1.6-3.5-4.6-1.2-2.8-1.2-5.25v-48.65H74.9v-21.4h6.65v-5.4h26.65M265.3 149.75q4.8 0 8.7 2.85 4.55 3.3 4.55 8v42.95H245.4v10.9h6.45V209h26.7v16.2q0 6.6-4.4 9.7-4.3 3-8.85 3h-33.35q-4.55 0-8.95-3-4.35-3.15-4.35-9.7v-64.6q0-4.7 4.55-8 3.9-2.85 8.75-2.85h33.35m-13.45 21.55h-6.45V182h6.45v-10.7M347.45 149.75v21.55h-33.2v5.25h33.2v21.6h-33.2v39.75h-26.7v-77.3q0-4.75 4.5-8 3.95-2.85 8.75-2.85h46.65M419.05 155.15v21.4h-33.2v37.9h6.65V182h26.55v45.2q0 4.6-4.4 7.7-4.3 3-8.9 3h-33.3q-4.3 0-8.6-2.85-2.15-1.6-3.5-4.6-1.2-2.8-1.2-5.25v-48.65h-6.65v-21.4h6.65v-5.4h26.7v5.4h33.2M39.2 55.65V98.8h6.4V55.65h-6.4m-22.25-18.7q3.95-2.9 8.75-2.9h46.65v102.3q0 4.4-4.75 7.85-4.25 2.85-8.5 2.85H12.4v-21.4h33.2v-5.45H25.7q-4.55 0-8.9-3.1-4.4-3-4.4-7.6V44.95q0-4.8 4.55-8M183.1 87.9h-6.45v10.9h6.45V87.9m-28.6-50.95q3.9-2.9 8.7-2.9h33.4q4.8 0 8.75 2.9 4.55 3.2 4.55 8v75.25h-46.7q-4.55 0-8.85-3.1-4.35-2.95-4.35-7.6V77.05q0-4.25 4.65-7.65 4.15-3.05 8.55-3.05h19.9v-10.7h-6.45v5.25H150V44.95q0-4.8 4.5-8M265.35 34.05q4.85 0 8.7 2.9 4.55 3.2 4.55 8v75.25h-26.7V55.65h-6.45v64.55H218.7V34.05h26.75v5.45q6.7-5.45 19.9-5.45M320.65 55.65h-6.5V98.8h6.5V55.65m-19.9-21.6h19.9V12.5h26.75v107.7h-46.65q-4.55 0-8.9-3.1-4.35-2.95-4.35-7.6V44.95q0-4.8 4.5-8 3.95-2.9 8.75-2.9"/><path fill="#fff" d="M107.9 66.35h6.5v-10.7h-6.5v10.7m19.9-32.3q4.9 0 8.75 2.9 4.55 3.2 4.55 8v26.8q0 2.5-2.1 3.75-2.2 1.55-4.5 1.55 2.25.2 4.5 1.55 2.1 1.45 2.1 3.85v43.2h35.5v24.1h19.9l3.4.35q2.85.7 5.35 2.5 4.55 3.3 4.55 8v77.3h-26.75v-66.6h-6.45v66.6h-26.7v-90.85h-22.1q-4.4 0-8.7-2.85-4.7-3.4-4.7-7.85V87.9h-6.5v32.3H81.2V34.05h46.6M124.25 248.85h26.7v64.75h6.45v-64.75h26.7v75.45q0 4.6-4.3 7.65-4.45 3.05-8.95 3.05H137.5q-4.5 0-8.95-3.05-4.3-3.05-4.3-7.65v-75.45M197.35 254.3v-5.45h26.7v5.45h33.2v21.4h-33.2v37.9h6.7v-32.45h26.5v43.15q0 4.6-4.35 7.65-4.45 3.05-8.95 3.05h-33.3q-4.3 0-8.6-2.9-4.7-3.35-4.7-7.8v-48.6h-6.6v-21.4h6.6M82.15 302.7v10.9h6.55v-10.9h-6.55m6.55-21.55v-10.7h-6.55v5.25H55.5v-16q0-4.7 4.5-7.95 3.95-2.9 8.75-2.9h33.35q4.8 0 8.7 2.9 4.6 3.35 4.6 7.95V335H68.75q-4.45 0-8.9-3.05-4.35-3-4.35-7.65v-32.45q0-4.3 4.65-7.65 4.25-3.05 8.6-3.05H88.7M299.3 270.45h-6.45v43.15h6.45v-43.15m13.45-21.6q4.85 0 8.75 2.9 4.55 3.3 4.55 7.95v64.6q0 4.6-4.4 7.65-4.4 3.05-8.9 3.05h-33.4q-4.45 0-8.85-3.05-4.35-3-4.35-7.65v-64.6q0-4.7 4.5-7.95 3.9-2.9 8.7-2.9h33.4"/></g></svg>