<?xml version="1.0" encoding="utf-8"?>
<!-- Generator: Adobe Illustrator 19.1.0, SVG Export Plug-In . SVG Version: 6.00 Build 0)  -->
<svg version="1.1" id="Layer_3" xmlns="http://www.w3.org/2000/svg" xmlns:xlink="http://www.w3.org/1999/xlink" x="0px" y="0px"
	 viewBox="-225 207 188 188" style="enable-background:new -225 207 188 188;" xml:space="preserve">
<style type="text/css">
	.st0{fill:#FFFFFF;}
	.st1{fill:#911A1D;}
	.st2{fill:url(#SVGID_1_);}
	.st3{fill:#EF4748;}
	.st4{fill:#0E1233;}
	.st5{fill:url(#SVGID_2_);}
	.st6{fill:url(#SVGID_3_);}
	.st7{fill:url(#SVGID_4_);}
</style>
<g>
	<g>
		<path class="st0" d="M-168.4,727c-2-0.6-3.9-1.4-5.8-2.4c-3.8,1.6-7.7,3-11.5,4.3c-1.1,0.7-2.3,1.5-3.4,2.3c1.9,2.3,4,4.4,6.2,6.4
			c2.1,0.1,4.1,0.1,6,0.1c3.7,0,7.5-0.1,11.2-0.4c4.1-0.5,8.3-1.1,12.4-1.8C-158.8,733.5-163.9,730.6-168.4,727z"/>
		<path class="st0" d="M-201,667.9c-1.6,1.9-4.2,5.7-4.7,7.2c-0.3,0.8-0.6,1.7-0.8,2.5c-0.1,0.9-0.1,1.8-0.2,2.7
			c2.6-1.9,5.1-3.8,7.8-5.7c1.8-4,3.7-8.1,5.6-12.1c-0.6,0.1-1.2,0.2-1.9,0.3C-197.5,664.1-199.5,666.1-201,667.9z"/>
		<path class="st0" d="M-198.3,653.2c3.2-1.5,6.6-2.2,10.2-1.5c1.6-3.3,3.2-6.5,4.8-9.8c1-2.1,2.8-2.8,4.4-2.5
			c0.6-0.8,1.4-1.4,2.6-1.8c5.8-1.8,12.5-3.7,19.1-4.2c9.1-4.2,19.4-6,30.1-4.7c4.5,0.6,8.8,1.7,12.8,3.2c5.7-3.2,11.7-6.1,17.7-8.6
			c0.4-0.5,0.8-0.9,1.3-1.4c-8.7-5.5-18.8-9.2-29.7-10.5c-32.4-4-62.4,13.9-75.3,42.1C-199.6,653.4-199,653.3-198.3,653.2z"/>
		<path class="st0" d="M-109,736.2c0.9,1.6,1.8,3.3,2.9,4.9c2.2-1.1,4.3-2.2,6.4-3.4c-0.3-1.2-0.2-2.5,0.4-3.8
			c0.1-0.2,0.2-0.4,0.4-0.7c-0.2-0.1-0.4-0.1-0.5-0.2C-102.7,734.2-105.8,735.2-109,736.2z"/>
		<path class="st0" d="M-115.3,745.2c-0.7-1.1-1.4-2.3-2.1-3.5c-2.6,2.6-5.3,5-8.2,7.2C-122.1,747.8-118.7,746.6-115.3,745.2z"/>
		<path class="st0" d="M-169,747.6c0.5,0.3,1,0.5,1.4,0.8c1-0.3,1.9-0.7,2.9-1C-166.2,747.4-167.6,747.5-169,747.6z"/>
	</g>
</g>
<g>
	<g>
		<polygon class="st1" points="-174.2,368.4 -203.7,356.2 -203.7,264.8 -174.2,264.8 		"/>
		
			<linearGradient id="SVGID_1_" gradientUnits="userSpaceOnUse" x1="-171.5754" y1="394.5727" x2="-190.9089" y2="281.2394" gradientTransform="matrix(1 0 0 -1 0 604)">
			<stop  offset="0" style="stop-color:#FFFFFF"/>
			<stop  offset="1" style="stop-color:#FFFFFF;stop-opacity:0"/>
		</linearGradient>
		<polygon class="st2" points="-176,358.6 -202.3,347.7 -202.3,266.3 -176,266.3 		"/>
		<polygon class="st3" points="-86.9,368.4 -57.4,356.2 -57.4,264.8 -86.9,264.8 		"/>
		<polygon class="st1" points="-130.5,383.9 -160.1,371.7 -160.1,264.8 -130.5,264.8 		"/>
		<polygon class="st3" points="-130.5,383.9 -101,371.7 -101,264.8 -130.5,264.8 		"/>
		<g>
			<path class="st4" d="M-138.7,262c-5.6,0-9.2-1.3-9.5-1.5c-23.8-9.1-23.9-19.8-23.6-22.4c1.4-12,9.9-16.2,14.2-16.8
				c0.8-0.1,1.7-0.2,2.7-0.2c16.7,0,25.1,22.4,26.3,25.8c4,9.4-1.2,13.3-1.8,13.7l-0.8,0.6l-1,0.2C-134.4,261.8-136.5,262-138.7,262
				z M-144.8,251.5c0,0,2.4,0.8,6.1,0.8c0.6,0,1.2,0,1.8-0.1c-0.1-0.5-0.3-1-0.6-1.7l-0.1-0.4c-1.7-5-8.6-19.5-17.2-19.5
				c-0.4,0-0.9,0-1.3,0.1c-0.9,0.2-5.2,1.3-6,8.4C-162.1,240.9-158.7,246.2-144.8,251.5L-144.8,251.5z"/>
		</g>
		<g>
			<path class="st4" d="M-122.4,262c-2.1,0-4.3-0.2-6.5-0.6l-1-0.2l-0.8-0.6c-0.6-0.4-5.8-4.3-1.8-13.7c1.2-3.4,9.6-25.8,26.3-25.8
				c0.9,0,1.9,0.1,2.8,0.2c4.2,0.5,12.7,4.8,14.1,16.8c0.4,2.6,0.3,13.3-23.5,22.4C-113.2,260.6-116.8,262-122.4,262z M-124.2,252.3
				c0.6,0,1.2,0.1,1.8,0.1c3.8,0,6.1-0.8,6.2-0.8c15.8-6.1,17.5-11.9,17.4-11.9v-0.3c-0.9-7.7-5.9-8.4-5.9-8.4
				c-0.6-0.1-1-0.1-1.5-0.1c-8.6,0-15.5,14.4-17.2,19.5l-0.1,0.4C-123.9,251.3-124.1,251.8-124.2,252.3z"/>
		</g>
		
			<linearGradient id="SVGID_2_" gradientUnits="userSpaceOnUse" x1="-129.014" y1="387.3122" x2="-148.3475" y2="273.9789" gradientTransform="matrix(1 0 0 -1 0 604)">
			<stop  offset="0" style="stop-color:#FFFFFF"/>
			<stop  offset="1" style="stop-color:#FFFFFF;stop-opacity:0"/>
		</linearGradient>
		<polygon class="st5" points="-132.2,358.6 -158.5,347.7 -158.5,266.3 -132.2,266.3 		"/>
		
			<linearGradient id="SVGID_3_" gradientUnits="userSpaceOnUse" x1="-280.9843" y1="362.1237" x2="-312.9841" y2="279.1241" gradientTransform="matrix(-1 0 0 -1 -423.9434 604)">
			<stop  offset="0" style="stop-color:#FFFFFF"/>
			<stop  offset="1" style="stop-color:#FFFFFF;stop-opacity:0"/>
		</linearGradient>
		<polygon class="st6" points="-128.9,358.6 -102.6,347.7 -102.6,266.3 -128.9,266.3 		"/>
		
			<linearGradient id="SVGID_4_" gradientUnits="userSpaceOnUse" x1="-318.9421" y1="376.7582" x2="-350.9419" y2="293.7585" gradientTransform="matrix(-1 0 0 -1 -423.9434 604)">
			<stop  offset="0" style="stop-color:#FFFFFF"/>
			<stop  offset="1" style="stop-color:#FFFFFF;stop-opacity:0"/>
		</linearGradient>
		<polygon class="st7" points="-85.3,358.6 -59,347.7 -59,266.3 -85.3,266.3 		"/>
	</g>
</g>
</svg>
